# MagicaVoxel @ Ephtracy

# group
g PlayerTower

# material
mtllib PlayerTower.mtl
usemtl palette

# normals
vn -1 0 0
vn 1 0 0
vn 0 0 1
vn 0 0 -1
vn 0 -1 0
vn 0 1 0

# texcoords
vt 0.826172 0.5
vt 0.841797 0.5
vt 0.876953 0.5
vt 0.966797 0.5
vt 0.970703 0.5
vt 0.978516 0.5

# verts
v -7 0 6
v -7 0 -6
v -7 1 6
v -7 1 -6
v -6 0 7
v -6 0 6
v -6 0 -6
v -6 0 -7
v -6 1 7
v -6 1 6
v -6 1 5
v -6 1 -5
v -6 1 -6
v -6 1 -7
v -6 3 5
v -6 3 -5
v -5 1 6
v -5 1 5
v -5 1 -5
v -5 1 -6
v -5 3 6
v -5 3 5
v -5 3 4
v -5 3 -4
v -5 3 -5
v -5 3 -6
v -5 5 4
v -5 5 -4
v -4 3 5
v -4 3 4
v -4 3 -4
v -4 3 -5
v -4 5 5
v -4 5 4
v -4 5 3
v -4 5 -3
v -4 5 -4
v -4 5 -5
v -4 11 1
v -4 11 -1
v -4 13 1
v -4 13 -1
v -4 15 2
v -4 15 1
v -4 15 -1
v -4 15 -2
v -4 17 3
v -4 17 2
v -4 17 1
v -4 17 -1
v -4 17 -2
v -4 17 -3
v -3 5 4
v -3 5 3
v -3 5 -3
v -3 5 -4
v -3 11 1
v -3 11 -1
v -3 13 1
v -3 13 -1
v -3 17 4
v -3 17 3
v -3 17 -3
v -3 17 -4
v -3 18 1
v -3 18 -0
v -3 19 1
v -3 19 -0
v -2 17 1
v -2 17 -0
v -2 18 1
v -2 18 -0
v -2 19 1
v -2 19 -0
v -2 20 1
v -2 20 -0
v -1 15 4
v -1 15 3
v -1 15 -3
v -1 15 -4
v -1 17 4
v -1 17 3
v -1 17 -3
v -1 17 -4
v 0 15 1
v 0 15 -0
v 0 17 1
v 0 17 -0
v 1 11 4
v 1 11 3
v 1 11 -3
v 1 11 -4
v 1 13 4
v 1 13 3
v 1 13 -3
v 1 13 -4
v 2 15 4
v 2 15 2
v 2 15 -2
v 2 15 -4
v 2 17 4
v 2 17 2
v 2 17 -2
v 2 17 -4
v 3 15 1
v 3 15 -1
v 3 17 1
v 3 17 -1
v -3 15 1
v -3 15 -1
v -3 17 1
v -3 17 -1
v -2 15 4
v -2 15 2
v -2 15 -2
v -2 15 -4
v -2 17 4
v -2 17 2
v -2 17 -2
v -2 17 -4
v -1 11 4
v -1 11 3
v -1 11 -3
v -1 11 -4
v -1 13 4
v -1 13 3
v -1 13 -3
v -1 13 -4
v 1 15 4
v 1 15 3
v 1 15 1
v 1 15 -0
v 1 15 -3
v 1 15 -4
v 1 17 4
v 1 17 3
v 1 17 -3
v 1 17 -4
v 1 20 1
v 1 20 -0
v 3 5 4
v 3 5 3
v 3 5 -3
v 3 5 -4
v 3 11 1
v 3 11 -1
v 3 13 1
v 3 13 -1
v 3 17 4
v 3 17 3
v 3 17 -3
v 3 17 -4
v 4 3 5
v 4 3 4
v 4 3 -4
v 4 3 -5
v 4 5 5
v 4 5 4
v 4 5 3
v 4 5 -3
v 4 5 -4
v 4 5 -5
v 4 11 1
v 4 11 -1
v 4 13 1
v 4 13 -1
v 4 15 2
v 4 15 1
v 4 15 -1
v 4 15 -2
v 4 17 3
v 4 17 2
v 4 17 1
v 4 17 -1
v 4 17 -2
v 4 17 -3
v 5 1 6
v 5 1 5
v 5 1 -5
v 5 1 -6
v 5 3 6
v 5 3 5
v 5 3 4
v 5 3 -4
v 5 3 -5
v 5 3 -6
v 5 5 4
v 5 5 -4
v 6 0 7
v 6 0 6
v 6 0 -6
v 6 0 -7
v 6 1 7
v 6 1 6
v 6 1 5
v 6 1 -5
v 6 1 -6
v 6 1 -7
v 6 3 5
v 6 3 -5
v 7 0 6
v 7 0 -6
v 7 1 6
v 7 1 -6
v -6 0 7
v -6 1 7
v 6 0 7
v 6 1 7
v -7 0 6
v -7 1 6
v -6 0 6
v -6 1 6
v -5 1 6
v -5 3 6
v 5 1 6
v 5 3 6
v 6 0 6
v 6 1 6
v 7 0 6
v 7 1 6
v -6 1 5
v -6 3 5
v -5 1 5
v -5 3 5
v -4 3 5
v -4 5 5
v 4 3 5
v 4 5 5
v 5 1 5
v 5 3 5
v 6 1 5
v 6 3 5
v -5 3 4
v -5 5 4
v -4 3 4
v -4 5 4
v -3 5 4
v -3 17 4
v -2 15 4
v -2 17 4
v -1 11 4
v -1 13 4
v -1 15 4
v -1 17 4
v 1 11 4
v 1 13 4
v 1 15 4
v 1 17 4
v 2 15 4
v 2 17 4
v 3 5 4
v 3 17 4
v 4 3 4
v 4 5 4
v 5 3 4
v 5 5 4
v -4 5 3
v -4 17 3
v -3 5 3
v -3 17 3
v -1 11 3
v -1 13 3
v 1 11 3
v 1 13 3
v 3 5 3
v 3 17 3
v 4 5 3
v 4 17 3
v -4 15 1
v -4 17 1
v -3 15 1
v -3 17 1
v -3 18 1
v -3 19 1
v -2 17 1
v -2 18 1
v -2 19 1
v -2 20 1
v 0 15 1
v 0 17 1
v 0 20 1
v 1 15 1
v 1 20 1
v 3 15 1
v 3 17 1
v 4 15 1
v 4 17 1
v -4 11 -1
v -4 13 -1
v -3 11 -1
v -3 13 -1
v 3 11 -1
v 3 13 -1
v 4 11 -1
v 4 13 -1
v -4 15 -2
v -4 17 -2
v -2 15 -2
v -2 17 -2
v 2 15 -2
v 2 17 -2
v 4 15 -2
v 4 17 -2
v -1 15 -3
v -1 17 -3
v 1 15 -3
v 1 17 -3
v -1 15 3
v -1 17 3
v 1 15 3
v 1 17 3
v -4 15 2
v -4 17 2
v -2 15 2
v -2 17 2
v 2 15 2
v 2 17 2
v 4 15 2
v 4 17 2
v -4 11 1
v -4 13 1
v -3 11 1
v -3 13 1
v 3 11 1
v 3 13 1
v 4 11 1
v 4 13 1
v -3 18 -0
v -3 19 -0
v -2 17 -0
v -2 18 -0
v -2 19 -0
v -2 20 -0
v 0 15 -0
v 0 17 -0
v 0 20 -0
v 1 15 -0
v 1 20 -0
v -4 15 -1
v -4 17 -1
v -3 15 -1
v -3 17 -1
v 3 15 -1
v 3 17 -1
v 4 15 -1
v 4 17 -1
v -4 5 -3
v -4 17 -3
v -3 5 -3
v -3 17 -3
v -1 11 -3
v -1 13 -3
v 1 11 -3
v 1 13 -3
v 3 5 -3
v 3 17 -3
v 4 5 -3
v 4 17 -3
v -5 3 -4
v -5 5 -4
v -4 3 -4
v -4 5 -4
v -3 5 -4
v -3 17 -4
v -2 15 -4
v -2 17 -4
v -1 11 -4
v -1 13 -4
v -1 15 -4
v -1 17 -4
v 1 11 -4
v 1 13 -4
v 1 15 -4
v 1 17 -4
v 2 15 -4
v 2 17 -4
v 3 5 -4
v 3 17 -4
v 4 3 -4
v 4 5 -4
v 5 3 -4
v 5 5 -4
v -6 1 -5
v -6 3 -5
v -5 1 -5
v -5 3 -5
v -4 3 -5
v -4 5 -5
v 4 3 -5
v 4 5 -5
v 5 1 -5
v 5 3 -5
v 6 1 -5
v 6 3 -5
v -7 0 -6
v -7 1 -6
v -6 0 -6
v -6 1 -6
v -5 1 -6
v -5 3 -6
v 5 1 -6
v 5 3 -6
v 6 0 -6
v 6 1 -6
v 7 0 -6
v 7 1 -6
v -6 0 -7
v -6 1 -7
v 6 0 -7
v 6 1 -7
v -6 0 7
v 6 0 7
v -7 0 6
v -6 0 6
v 6 0 6
v 7 0 6
v 1 0 3
v 3 0 3
v 1 0 -3
v 3 0 -3
v -7 0 -6
v -6 0 -6
v 6 0 -6
v 7 0 -6
v -6 0 -7
v 6 0 -7
v -1 13 4
v 1 13 4
v -1 13 3
v 1 13 3
v -4 13 1
v -3 13 1
v 3 13 1
v 4 13 1
v -4 13 -1
v -3 13 -1
v 3 13 -1
v 4 13 -1
v -1 13 -3
v 1 13 -3
v -1 13 -4
v 1 13 -4
v -2 17 1
v 0 17 1
v -2 17 -0
v 0 17 -0
v -3 18 1
v -2 18 1
v -3 18 -0
v -2 18 -0
v -6 1 7
v 6 1 7
v -7 1 6
v -6 1 6
v -5 1 6
v 5 1 6
v 6 1 6
v 7 1 6
v -6 1 5
v -5 1 5
v 5 1 5
v 6 1 5
v -6 1 -5
v -5 1 -5
v 5 1 -5
v 6 1 -5
v -7 1 -6
v -6 1 -6
v -5 1 -6
v 5 1 -6
v 6 1 -6
v 7 1 -6
v -6 1 -7
v 6 1 -7
v -5 3 6
v 5 3 6
v -6 3 5
v -5 3 5
v -4 3 5
v 4 3 5
v 5 3 5
v 6 3 5
v -5 3 4
v -4 3 4
v 4 3 4
v 5 3 4
v -5 3 -4
v -4 3 -4
v 4 3 -4
v 5 3 -4
v -6 3 -5
v -5 3 -5
v -4 3 -5
v 4 3 -5
v 5 3 -5
v 6 3 -5
v -5 3 -6
v 5 3 -6
v -4 5 5
v 4 5 5
v -5 5 4
v -4 5 4
v -3 5 4
v 3 5 4
v 4 5 4
v 5 5 4
v -4 5 3
v -3 5 3
v 3 5 3
v 4 5 3
v -4 5 -3
v -3 5 -3
v 3 5 -3
v 4 5 -3
v -5 5 -4
v -4 5 -4
v -3 5 -4
v 3 5 -4
v 4 5 -4
v 5 5 -4
v -4 5 -5
v 4 5 -5
v -1 11 4
v 1 11 4
v -1 11 3
v 1 11 3
v -4 11 1
v -3 11 1
v 3 11 1
v 4 11 1
v -4 11 -1
v -3 11 -1
v 3 11 -1
v 4 11 -1
v -1 11 -3
v 1 11 -3
v -1 11 -4
v 1 11 -4
v -2 15 4
v -1 15 4
v 1 15 4
v 2 15 4
v -1 15 3
v 1 15 3
v -4 15 2
v -2 15 2
v 2 15 2
v 4 15 2
v -4 15 1
v -3 15 1
v 0 15 1
v 1 15 1
v 3 15 1
v 4 15 1
v 0 15 -0
v 1 15 -0
v -4 15 -1
v -3 15 -1
v 3 15 -1
v 4 15 -1
v -4 15 -2
v -2 15 -2
v 2 15 -2
v 4 15 -2
v -1 15 -3
v 1 15 -3
v -2 15 -4
v -1 15 -4
v 1 15 -4
v 2 15 -4
v -3 17 4
v -2 17 4
v -1 17 4
v 1 17 4
v 2 17 4
v 3 17 4
v -4 17 3
v -3 17 3
v -1 17 3
v 1 17 3
v 3 17 3
v 4 17 3
v -4 17 2
v -2 17 2
v 2 17 2
v 4 17 2
v -4 17 1
v -3 17 1
v 3 17 1
v 4 17 1
v -4 17 -1
v -3 17 -1
v 3 17 -1
v 4 17 -1
v -4 17 -2
v -2 17 -2
v 2 17 -2
v 4 17 -2
v -4 17 -3
v -3 17 -3
v -1 17 -3
v 1 17 -3
v 3 17 -3
v 4 17 -3
v -3 17 -4
v -2 17 -4
v -1 17 -4
v 1 17 -4
v 2 17 -4
v 3 17 -4
v -3 19 1
v -2 19 1
v -3 19 -0
v -2 19 -0
v -2 20 1
v 0 20 1
v 1 20 1
v -2 20 -0
v 0 20 -0
v 1 20 -0

# faces
f 3/6/1 2/6/1 1/6/1
f 4/6/1 2/6/1 3/6/1
f 9/6/1 6/6/1 5/6/1
f 10/6/1 6/6/1 9/6/1
f 13/6/1 8/6/1 7/6/1
f 14/6/1 8/6/1 13/6/1
f 15/6/1 12/6/1 11/6/1
f 16/6/1 12/6/1 15/6/1
f 21/6/1 18/6/1 17/6/1
f 22/6/1 18/6/1 21/6/1
f 25/6/1 20/6/1 19/6/1
f 26/6/1 20/6/1 25/6/1
f 27/6/1 24/6/1 23/6/1
f 28/6/1 24/6/1 27/6/1
f 33/6/1 30/6/1 29/6/1
f 34/6/1 30/6/1 33/6/1
f 37/6/1 32/6/1 31/6/1
f 38/6/1 32/6/1 37/6/1
f 39/6/1 36/6/1 35/6/1
f 40/6/1 36/6/1 39/6/1
f 41/6/1 39/6/1 35/6/1
f 42/6/1 36/6/1 40/6/1
f 43/6/1 41/6/1 35/6/1
f 43/6/1 42/6/1 41/6/1
f 44/6/1 42/6/1 43/6/1
f 45/6/1 36/6/1 42/6/1
f 45/6/1 42/6/1 44/6/1
f 46/6/1 36/6/1 45/6/1
f 47/6/1 43/6/1 35/6/1
f 48/6/1 43/6/1 47/6/1
f 49/6/1 45/6/1 44/6/1
f 50/6/1 45/6/1 49/6/1
f 51/6/1 36/6/1 46/6/1
f 52/6/1 36/6/1 51/6/1
f 59/3/1 58/3/1 57/3/1
f 60/3/1 58/3/1 59/3/1
f 61/6/1 54/6/1 53/6/1
f 62/6/1 54/6/1 61/6/1
f 63/6/1 56/6/1 55/6/1
f 64/6/1 56/6/1 63/6/1
f 67/2/1 66/2/1 65/2/1
f 68/2/1 66/2/1 67/2/1
f 71/2/1 70/2/1 69/2/1
f 72/2/1 70/2/1 71/2/1
f 75/2/1 74/2/1 73/2/1
f 76/2/1 74/2/1 75/2/1
f 81/6/1 78/6/1 77/6/1
f 82/6/1 78/6/1 81/6/1
f 83/6/1 80/6/1 79/6/1
f 84/6/1 80/6/1 83/6/1
f 87/5/1 86/5/1 85/5/1
f 88/5/1 86/5/1 87/5/1
f 93/6/1 90/6/1 89/6/1
f 94/6/1 90/6/1 93/6/1
f 95/6/1 92/6/1 91/6/1
f 96/6/1 92/6/1 95/6/1
f 101/6/1 98/6/1 97/6/1
f 102/6/1 98/6/1 101/6/1
f 103/6/1 100/6/1 99/6/1
f 104/6/1 100/6/1 103/6/1
f 107/6/1 106/6/1 105/6/1
f 108/6/1 106/6/1 107/6/1
f 109/6/2 110/6/2 111/6/2
f 111/6/2 110/6/2 112/6/2
f 113/6/2 114/6/2 117/6/2
f 117/6/2 114/6/2 118/6/2
f 115/6/2 116/6/2 119/6/2
f 119/6/2 116/6/2 120/6/2
f 121/6/2 122/6/2 125/6/2
f 125/6/2 122/6/2 126/6/2
f 123/6/2 124/6/2 127/6/2
f 127/6/2 124/6/2 128/6/2
f 129/6/2 130/6/2 135/6/2
f 135/6/2 130/6/2 136/6/2
f 133/6/2 134/6/2 137/6/2
f 137/6/2 134/6/2 138/6/2
f 131/5/2 132/5/2 139/5/2
f 139/5/2 132/5/2 140/5/2
f 145/3/2 146/3/2 147/3/2
f 147/3/2 146/3/2 148/3/2
f 141/6/2 142/6/2 149/6/2
f 149/6/2 142/6/2 150/6/2
f 143/6/2 144/6/2 151/6/2
f 151/6/2 144/6/2 152/6/2
f 153/6/2 154/6/2 157/6/2
f 157/6/2 154/6/2 158/6/2
f 155/6/2 156/6/2 161/6/2
f 161/6/2 156/6/2 162/6/2
f 159/6/2 160/6/2 163/6/2
f 163/6/2 160/6/2 164/6/2
f 159/6/2 163/6/2 165/6/2
f 164/6/2 160/6/2 166/6/2
f 159/6/2 165/6/2 167/6/2
f 165/6/2 166/6/2 167/6/2
f 167/6/2 166/6/2 168/6/2
f 166/6/2 160/6/2 169/6/2
f 168/6/2 166/6/2 169/6/2
f 169/6/2 160/6/2 170/6/2
f 159/6/2 167/6/2 171/6/2
f 171/6/2 167/6/2 172/6/2
f 168/6/2 169/6/2 173/6/2
f 173/6/2 169/6/2 174/6/2
f 170/6/2 160/6/2 175/6/2
f 175/6/2 160/6/2 176/6/2
f 177/6/2 178/6/2 181/6/2
f 181/6/2 178/6/2 182/6/2
f 179/6/2 180/6/2 185/6/2
f 185/6/2 180/6/2 186/6/2
f 183/6/2 184/6/2 187/6/2
f 187/6/2 184/6/2 188/6/2
f 189/6/2 190/6/2 193/6/2
f 193/6/2 190/6/2 194/6/2
f 191/6/2 192/6/2 197/6/2
f 197/6/2 192/6/2 198/6/2
f 195/6/2 196/6/2 199/6/2
f 199/6/2 196/6/2 200/6/2
f 201/6/2 202/6/2 203/6/2
f 203/6/2 202/6/2 204/6/2
f 207/6/3 206/6/3 205/6/3
f 208/6/3 206/6/3 207/6/3
f 211/6/3 210/6/3 209/6/3
f 212/6/3 210/6/3 211/6/3
f 215/6/3 214/6/3 213/6/3
f 216/6/3 214/6/3 215/6/3
f 219/6/3 218/6/3 217/6/3
f 220/6/3 218/6/3 219/6/3
f 223/6/3 222/6/3 221/6/3
f 224/6/3 222/6/3 223/6/3
f 227/6/3 226/6/3 225/6/3
f 228/6/3 226/6/3 227/6/3
f 231/6/3 230/6/3 229/6/3
f 232/6/3 230/6/3 231/6/3
f 235/6/3 234/6/3 233/6/3
f 236/6/3 234/6/3 235/6/3
f 239/6/3 238/6/3 237/6/3
f 240/6/3 238/6/3 239/6/3
f 241/6/3 239/6/3 237/6/3
f 242/6/3 239/6/3 241/6/3
f 243/6/3 239/6/3 242/6/3
f 245/6/3 241/6/3 237/6/3
f 246/6/3 244/6/3 243/6/3
f 246/6/3 243/6/3 242/6/3
f 247/6/3 244/6/3 246/6/3
f 248/6/3 244/6/3 247/6/3
f 249/6/3 246/6/3 245/6/3
f 249/6/3 247/6/3 246/6/3
f 251/6/3 245/6/3 237/6/3
f 251/6/3 250/6/3 249/6/3
f 251/6/3 249/6/3 245/6/3
f 252/6/3 250/6/3 251/6/3
f 255/6/3 254/6/3 253/6/3
f 256/6/3 254/6/3 255/6/3
f 259/6/3 258/6/3 257/6/3
f 260/6/3 258/6/3 259/6/3
f 263/3/3 262/3/3 261/3/3
f 264/3/3 262/3/3 263/3/3
f 267/6/3 266/6/3 265/6/3
f 268/6/3 266/6/3 267/6/3
f 271/6/3 270/6/3 269/6/3
f 272/6/3 270/6/3 271/6/3
f 276/2/3 274/2/3 273/2/3
f 277/2/3 274/2/3 276/2/3
f 280/2/3 276/2/3 275/2/3
f 280/2/3 278/2/3 277/2/3
f 280/2/3 277/2/3 276/2/3
f 281/2/3 278/2/3 280/2/3
f 282/5/3 280/5/3 279/5/3
f 282/5/3 281/5/3 280/5/3
f 283/5/3 281/5/3 282/5/3
f 286/6/3 285/6/3 284/6/3
f 287/6/3 285/6/3 286/6/3
f 290/6/3 289/6/3 288/6/3
f 291/6/3 289/6/3 290/6/3
f 294/6/3 293/6/3 292/6/3
f 295/6/3 293/6/3 294/6/3
f 298/6/3 297/6/3 296/6/3
f 299/6/3 297/6/3 298/6/3
f 302/6/3 301/6/3 300/6/3
f 303/6/3 301/6/3 302/6/3
f 306/6/3 305/6/3 304/6/3
f 307/6/3 305/6/3 306/6/3
f 308/6/4 309/6/4 310/6/4
f 310/6/4 309/6/4 311/6/4
f 312/6/4 313/6/4 314/6/4
f 314/6/4 313/6/4 315/6/4
f 316/6/4 317/6/4 318/6/4
f 318/6/4 317/6/4 319/6/4
f 320/6/4 321/6/4 322/6/4
f 322/6/4 321/6/4 323/6/4
f 324/6/4 325/6/4 326/6/4
f 326/6/4 325/6/4 327/6/4
f 328/2/4 329/2/4 331/2/4
f 331/2/4 329/2/4 332/2/4
f 330/2/4 331/2/4 335/2/4
f 332/2/4 333/2/4 335/2/4
f 331/2/4 332/2/4 335/2/4
f 335/2/4 333/2/4 336/2/4
f 334/5/4 335/5/4 337/5/4
f 335/5/4 336/5/4 337/5/4
f 337/5/4 336/5/4 338/5/4
f 339/6/4 340/6/4 341/6/4
f 341/6/4 340/6/4 342/6/4
f 343/6/4 344/6/4 345/6/4
f 345/6/4 344/6/4 346/6/4
f 347/6/4 348/6/4 349/6/4
f 349/6/4 348/6/4 350/6/4
f 351/3/4 352/3/4 353/3/4
f 353/3/4 352/3/4 354/3/4
f 355/6/4 356/6/4 357/6/4
f 357/6/4 356/6/4 358/6/4
f 359/6/4 360/6/4 361/6/4
f 361/6/4 360/6/4 362/6/4
f 363/6/4 364/6/4 365/6/4
f 365/6/4 364/6/4 366/6/4
f 363/6/4 365/6/4 367/6/4
f 367/6/4 365/6/4 368/6/4
f 368/6/4 365/6/4 369/6/4
f 363/6/4 367/6/4 371/6/4
f 369/6/4 370/6/4 372/6/4
f 368/6/4 369/6/4 372/6/4
f 372/6/4 370/6/4 373/6/4
f 373/6/4 370/6/4 374/6/4
f 371/6/4 372/6/4 375/6/4
f 372/6/4 373/6/4 375/6/4
f 363/6/4 371/6/4 377/6/4
f 375/6/4 376/6/4 377/6/4
f 371/6/4 375/6/4 377/6/4
f 377/6/4 376/6/4 378/6/4
f 379/6/4 380/6/4 381/6/4
f 381/6/4 380/6/4 382/6/4
f 383/6/4 384/6/4 385/6/4
f 385/6/4 384/6/4 386/6/4
f 387/6/4 388/6/4 389/6/4
f 389/6/4 388/6/4 390/6/4
f 391/6/4 392/6/4 393/6/4
f 393/6/4 392/6/4 394/6/4
f 395/6/4 396/6/4 397/6/4
f 397/6/4 396/6/4 398/6/4
f 399/6/4 400/6/4 401/6/4
f 401/6/4 400/6/4 402/6/4
f 403/6/4 404/6/4 405/6/4
f 405/6/4 404/6/4 406/6/4
f 407/6/4 408/6/4 409/6/4
f 409/6/4 408/6/4 410/6/4
f 414/6/5 412/6/5 411/6/5
f 415/6/5 412/6/5 414/6/5
f 417/6/5 414/6/5 413/6/5
f 417/6/5 416/6/5 415/6/5
f 417/6/5 415/6/5 414/6/5
f 418/6/5 416/6/5 417/6/5
f 419/6/5 417/6/5 413/6/5
f 419/4/5 418/4/5 417/4/5
f 420/6/5 416/6/5 418/6/5
f 420/4/5 418/4/5 419/4/5
f 421/6/5 419/6/5 413/6/5
f 421/6/5 420/6/5 419/6/5
f 422/6/5 420/6/5 421/6/5
f 423/6/5 416/6/5 420/6/5
f 423/6/5 420/6/5 422/6/5
f 424/6/5 416/6/5 423/6/5
f 425/6/5 423/6/5 422/6/5
f 426/6/5 423/6/5 425/6/5
f 429/6/5 428/6/5 427/6/5
f 430/6/5 428/6/5 429/6/5
f 435/6/5 432/6/5 431/6/5
f 436/6/5 432/6/5 435/6/5
f 437/6/5 434/6/5 433/6/5
f 438/6/5 434/6/5 437/6/5
f 441/6/5 440/6/5 439/6/5
f 442/6/5 440/6/5 441/6/5
f 445/2/5 444/2/5 443/2/5
f 446/2/5 444/2/5 445/2/5
f 449/2/5 448/2/5 447/2/5
f 450/2/5 448/2/5 449/2/5
f 451/6/6 452/6/6 454/6/6
f 454/6/6 452/6/6 455/6/6
f 455/6/6 452/6/6 456/6/6
f 456/6/6 452/6/6 457/6/6
f 453/6/6 454/6/6 459/6/6
f 454/6/6 455/6/6 459/6/6
f 459/6/6 455/6/6 460/6/6
f 457/6/6 458/6/6 461/6/6
f 456/6/6 457/6/6 461/6/6
f 461/6/6 458/6/6 462/6/6
f 453/6/6 459/6/6 463/6/6
f 462/6/6 458/6/6 466/6/6
f 463/6/6 464/6/6 467/6/6
f 453/6/6 463/6/6 467/6/6
f 467/6/6 464/6/6 468/6/6
f 468/6/6 464/6/6 469/6/6
f 465/6/6 466/6/6 470/6/6
f 466/6/6 458/6/6 471/6/6
f 470/6/6 466/6/6 471/6/6
f 471/6/6 458/6/6 472/6/6
f 468/6/6 469/6/6 473/6/6
f 469/6/6 470/6/6 473/6/6
f 470/6/6 471/6/6 473/6/6
f 473/6/6 471/6/6 474/6/6
f 475/6/6 476/6/6 478/6/6
f 478/6/6 476/6/6 479/6/6
f 479/6/6 476/6/6 480/6/6
f 480/6/6 476/6/6 481/6/6
f 477/6/6 478/6/6 483/6/6
f 478/6/6 479/6/6 483/6/6
f 483/6/6 479/6/6 484/6/6
f 481/6/6 482/6/6 485/6/6
f 480/6/6 481/6/6 485/6/6
f 485/6/6 482/6/6 486/6/6
f 477/6/6 483/6/6 487/6/6
f 486/6/6 482/6/6 490/6/6
f 487/6/6 488/6/6 491/6/6
f 477/6/6 487/6/6 491/6/6
f 491/6/6 488/6/6 492/6/6
f 492/6/6 488/6/6 493/6/6
f 489/6/6 490/6/6 494/6/6
f 490/6/6 482/6/6 495/6/6
f 494/6/6 490/6/6 495/6/6
f 495/6/6 482/6/6 496/6/6
f 492/6/6 493/6/6 497/6/6
f 493/6/6 494/6/6 497/6/6
f 494/6/6 495/6/6 497/6/6
f 497/6/6 495/6/6 498/6/6
f 499/6/6 500/6/6 502/6/6
f 502/6/6 500/6/6 503/6/6
f 503/6/6 500/6/6 504/6/6
f 504/6/6 500/6/6 505/6/6
f 501/6/6 502/6/6 507/6/6
f 502/6/6 503/6/6 507/6/6
f 507/6/6 503/6/6 508/6/6
f 505/6/6 506/6/6 509/6/6
f 504/6/6 505/6/6 509/6/6
f 509/6/6 506/6/6 510/6/6
f 501/6/6 507/6/6 511/6/6
f 510/6/6 506/6/6 514/6/6
f 511/6/6 512/6/6 515/6/6
f 501/6/6 511/6/6 515/6/6
f 515/6/6 512/6/6 516/6/6
f 516/6/6 512/6/6 517/6/6
f 513/6/6 514/6/6 518/6/6
f 514/6/6 506/6/6 519/6/6
f 518/6/6 514/6/6 519/6/6
f 519/6/6 506/6/6 520/6/6
f 516/6/6 517/6/6 521/6/6
f 517/6/6 518/6/6 521/6/6
f 518/6/6 519/6/6 521/6/6
f 521/6/6 519/6/6 522/6/6
f 523/6/6 524/6/6 525/6/6
f 525/6/6 524/6/6 526/6/6
f 527/6/6 528/6/6 531/6/6
f 531/6/6 528/6/6 532/6/6
f 529/6/6 530/6/6 533/6/6
f 533/6/6 530/6/6 534/6/6
f 535/6/6 536/6/6 537/6/6
f 537/6/6 536/6/6 538/6/6
f 539/6/6 540/6/6 543/6/6
f 541/6/6 542/6/6 544/6/6
f 539/6/6 543/6/6 546/6/6
f 543/6/6 544/6/6 546/6/6
f 544/6/6 542/6/6 547/6/6
f 546/6/6 544/6/6 547/6/6
f 545/6/6 546/6/6 549/6/6
f 547/6/6 548/6/6 549/6/6
f 546/6/6 547/6/6 549/6/6
f 549/6/6 548/6/6 550/6/6
f 550/6/6 548/6/6 551/6/6
f 551/6/6 548/6/6 552/6/6
f 552/6/6 548/6/6 553/6/6
f 553/6/6 548/6/6 554/6/6
f 550/6/6 551/6/6 555/6/6
f 552/6/6 553/6/6 556/6/6
f 550/6/6 555/6/6 558/6/6
f 555/6/6 556/6/6 558/6/6
f 556/6/6 553/6/6 559/6/6
f 558/6/6 556/6/6 559/6/6
f 557/6/6 558/6/6 561/6/6
f 559/6/6 560/6/6 561/6/6
f 558/6/6 559/6/6 561/6/6
f 561/6/6 560/6/6 562/6/6
f 562/6/6 560/6/6 563/6/6
f 563/6/6 560/6/6 564/6/6
f 562/6/6 563/6/6 565/6/6
f 565/6/6 563/6/6 566/6/6
f 562/6/6 565/6/6 567/6/6
f 567/6/6 565/6/6 568/6/6
f 566/6/6 563/6/6 569/6/6
f 569/6/6 563/6/6 570/6/6
f 571/6/6 572/6/6 578/6/6
f 573/6/6 574/6/6 579/6/6
f 579/6/6 574/6/6 580/6/6
f 575/6/6 576/6/6 581/6/6
f 577/6/6 578/6/6 583/6/6
f 578/6/6 572/6/6 584/6/6
f 583/6/6 578/6/6 584/6/6
f 581/6/6 582/6/6 585/6/6
f 575/6/6 581/6/6 585/6/6
f 585/6/6 582/6/6 586/6/6
f 587/6/6 588/6/6 591/6/6
f 591/6/6 588/6/6 592/6/6
f 589/6/6 590/6/6 593/6/6
f 593/6/6 590/6/6 594/6/6
f 595/6/6 596/6/6 599/6/6
f 599/6/6 596/6/6 600/6/6
f 597/6/6 598/6/6 603/6/6
f 603/6/6 598/6/6 604/6/6
f 600/6/6 596/6/6 605/6/6
f 605/6/6 596/6/6 606/6/6
f 601/6/6 602/6/6 607/6/6
f 607/6/6 602/6/6 608/6/6
f 597/6/6 603/6/6 609/6/6
f 609/6/6 603/6/6 610/6/6
f 611/2/6 612/2/6 613/2/6
f 613/2/6 612/2/6 614/2/6
f 615/2/6 616/2/6 618/2/6
f 616/5/6 617/5/6 619/5/6
f 618/2/6 616/2/6 619/2/6
f 619/5/6 617/5/6 620/5/6
